<?xml version="1.0" encoding="utf-8"?>
<svg viewBox="0 0 255 187" xmlns="http://www.w3.org/2000/svg">
  <g transform="matrix(3.511348, 0, 0, 3.511181, -56.535942, -78.258705)" id="g-1" style="">
    <path id="path-1" style="fill:#999999;fill-opacity:1;stroke-width:0.264583" d="m 74.107596,65.057228 c -15.34584,-0.26459 -17.72709,-5.29167 -21.69584,-10.31875 -4.49791,-4.7625 -7.9375,-8.46667 -21.695827,-8.46667 v 10.58333 c 6.87917,0 11.641667,1.85209 16.668747,8.73125 5.29167,7.40834 14.81667,9.78959 26.72292,9.78959 z"/>
    <rect id="rect-1" style="fill:#808080;stroke-width:0.264583" height="10.583333" width="46.037498" y="46.271816" x="30.980518"/>
    <path id="path-2" style="fill:#3366cc;fill-opacity:1;stroke-width:0.264583" d="m 72.520096,22.459314 15.875,10.054164 -15.875,10.05416 z"/>
    <path id="path-3" style="fill:#3366cc;fill-opacity:1;stroke-width:0.264583" d="m 74.107596,37.540558 c -15.34584,0.26458 -17.72709,5.29167 -21.69584,10.05417 -4.49791,5.02708 -7.9375,8.73125 -21.695827,8.73125 v -10.58334 c 6.87917,-0.26458 11.641667,-2.11666 16.668747,-8.73125 5.29167,-7.67291 14.81667,-10.318741 26.72292,-9.789574 z"/>
    <circle id="circle-1" style="fill:#0f4ecc;fill-opacity:1;stroke-width:0.264583" r="13.229166" cy="51.563473" cx="29.657597"/>
  </g>
</svg>